# xmcd CD database file
#
# Track frame offsets:
#	150
#	27621
#	56193
#	83602
#	112317
#	148438
#	187839
#	220155
#	245470
#	274632
#
# Disc length: 4108 seconds
#
# Revision: 0
# Processed by: cddbd v1.5.2PL0 Copyright (c) Steve Scherf et al.
# Submitted via: CDex 1.51
#
DISCID=99100a0a
DTITLE=Waldi Weiz Band - Live at Yorckschlösschen Berlin
DYEAR=2006
DGENRE=Blues
TTITLE0=Chicken
TTITLE1=Telephone Blues
TTITLE2=Sittin' On The Dock Of The Bay
TTITLE3=Boom Boom
TTITLE4=The Thrill Is Gone
TTITLE5=Ain't No Sunshine
TTITLE6=Going Down Slow
TTITLE7=Wie Waldi
TTITLE8=Sexmachine
TTITLE9=Everything Must Change
EXTD=YEAR: 2006
EXTT0=
EXTT1=
EXTT2=
EXTT3=
EXTT4=
EXTT5=
EXTT6=
EXTT7=
EXTT8=
EXTT9=
PLAYORDER=
